<mxfile host="app.diagrams.net" modified="2024-04-29T12:32:42.762Z" agent="Mozilla/5.0 (Macintosh; Intel Mac OS X 10_15_7) AppleWebKit/537.36 (KHTML, like Gecko) Chrome/123.0.0.0 Safari/537.36" etag="gsbcJjAJH-CN2QyvVxKp" version="24.3.1" type="device">
  <diagram name="ページ1" id="P3J0ScVeM1L8zZqx5qDx">
    <mxGraphModel dx="2018" dy="1618" grid="1" gridSize="10" guides="1" tooltips="1" connect="1" arrows="0" fold="1" page="1" pageScale="1" pageWidth="900" pageHeight="1600" background="none" math="0" shadow="0">
      <root>
        <mxCell id="0" />
        <mxCell id="1" parent="0" />
        <mxCell id="VvI7Nf8ru6upJGFx4GVh-1" value="&lt;h1&gt;&lt;span style=&quot;font-family: Inter, sans-serif; text-align: start; white-space-collapse: preserve; font-weight: normal;&quot;&gt;&lt;font style=&quot;font-size: 40px;&quot;&gt;GreenPaws Organics&lt;/font&gt;&lt;/span&gt;&lt;/h1&gt;" style="text;strokeColor=none;align=center;fillColor=none;html=1;verticalAlign=middle;whiteSpace=wrap;rounded=0;labelBackgroundColor=none;" vertex="1" parent="1">
          <mxGeometry x="-850" y="60" width="470" height="140" as="geometry" />
        </mxCell>
      </root>
    </mxGraphModel>
  </diagram>
</mxfile>
